<svg width="32" height="32" viewBox="0 0 32 32" fill="none" xmlns="http://www.w3.org/2000/svg">
<path d="M12.25 16L16 24.25L19.75 16H12.25Z" fill="#3C096C"/>
<path d="M12.25 16L16 7.75L19.75 16H12.25Z" fill="#FF3131"/>
<path d="M17.5 16C17.5 16.8284 16.8284 17.5 16 17.5C15.1716 17.5 14.5 16.8284 14.5 16C14.5 15.1716 15.1716 14.5 16 14.5C16.8284 14.5 17.5 15.1716 17.5 16Z" fill="white"/>
<path d="M28 16C28 17.5759 27.6896 19.1363 27.0865 20.5922C26.4835 22.0481 25.5996 23.371 24.4853 24.4853C23.371 25.5996 22.0481 26.4835 20.5922 27.0866C19.1363 27.6896 17.5759 28 16 28C14.4241 28 12.8637 27.6896 11.4078 27.0866C9.95189 26.4835 8.62902 25.5996 7.51472 24.4853C6.40041 23.371 5.5165 22.0481 4.91344 20.5922C4.31039 19.1363 4 17.5759 4 16H6.16C6.16 17.2922 6.41452 18.5718 6.90902 19.7656C7.40353 20.9595 8.12834 22.0442 9.04207 22.9579C9.9558 23.8717 11.0405 24.5965 12.2344 25.091C13.4282 25.5855 14.7078 25.84 16 25.84C17.2922 25.84 18.5718 25.5855 19.7656 25.091C20.9594 24.5965 22.0442 23.8717 22.9579 22.9579C23.8717 22.0442 24.5965 20.9595 25.091 19.7656C25.5855 18.5718 25.84 17.2922 25.84 16H28Z" fill="#3C096C"/>
<path d="M28 16C28 14.4241 27.6896 12.8637 27.0865 11.4078C26.4835 9.95189 25.5996 8.62902 24.4853 7.51472C23.371 6.40041 22.0481 5.5165 20.5922 4.91345C19.1363 4.31039 17.5759 4 16 4C14.4241 4 12.8637 4.31039 11.4078 4.91345C9.95189 5.5165 8.62902 6.40042 7.51472 7.51472C6.40041 8.62902 5.5165 9.95189 4.91344 11.4078C4.31039 12.8637 4 14.4241 4 16H6.16C6.16 14.7078 6.41452 13.4282 6.90902 12.2344C7.40353 11.0405 8.12834 9.9558 9.04207 9.04207C9.9558 8.12834 11.0405 7.40353 12.2344 6.90902C13.4282 6.41452 14.7078 6.16 16 6.16C17.2922 6.16 18.5718 6.41452 19.7656 6.90902C20.9594 7.40353 22.0442 8.12834 22.9579 9.04207C23.8717 9.9558 24.5965 11.0405 25.091 12.2344C25.5855 13.4282 25.84 14.7078 25.84 16H28Z" fill="#FF3131"/>
</svg>
